<svg width="25" height="26" viewBox="0 0 25 26" fill="none" xmlns="http://www.w3.org/2000/svg">
<path d="M1.14705 1.63582C1.57774 1.20526 2.16181 0.963379 2.77081 0.963379C3.37981 0.963379 3.96387 1.20526 4.39457 1.63582L12.5157 9.75691L20.6368 1.63582C21.0699 1.21746 21.6501 0.985964 22.2522 0.991197C22.8544 0.99643 23.4305 1.23797 23.8563 1.6638C24.2821 2.08962 24.5237 2.66566 24.5289 3.26784C24.5341 3.87003 24.3026 4.45018 23.8843 4.88334L15.7632 13.0044L23.8843 21.1255C24.3026 21.5587 24.5341 22.1388 24.5289 22.741C24.5237 23.3432 24.2821 23.9192 23.8563 24.3451C23.4305 24.7709 22.8544 25.0124 22.2522 25.0177C21.6501 25.0229 21.0699 24.7914 20.6368 24.373L12.5157 16.2519L4.39457 24.373C3.96141 24.7914 3.38126 25.0229 2.77907 25.0177C2.17689 25.0124 1.60085 24.7709 1.17503 24.3451C0.749201 23.9192 0.507661 23.3432 0.502428 22.741C0.497195 22.1388 0.728688 21.5587 1.14705 21.1255L9.26814 13.0044L1.14705 4.88334C0.716486 4.45264 0.474609 3.86858 0.474609 3.25958C0.474609 2.65058 0.716486 2.06651 1.14705 1.63582Z" fill="#C4BFBD"/>
</svg>
