<svg width="14" height="27" viewBox="0 0 14 27" fill="none" xmlns="http://www.w3.org/2000/svg">
<path d="M11.3205 26.1195C11.0465 26.1204 10.7758 26.06 10.5282 25.9425C10.2807 25.8251 10.0626 25.6537 9.88997 25.4409L1.03148 14.4366C0.761725 14.1084 0.614255 13.6968 0.614256 13.2719C0.614256 12.8471 0.761725 12.4355 1.03148 12.1073L10.2018 1.10299C10.5131 0.728444 10.9604 0.492906 11.4454 0.448192C11.9304 0.403479 12.4132 0.553251 12.7878 0.864561C13.1623 1.17587 13.3979 1.62322 13.4426 2.10819C13.4873 2.59316 13.3375 3.07603 13.0262 3.45058L4.82798 13.2811L12.7511 23.1117C12.9754 23.3809 13.1178 23.7087 13.1616 24.0563C13.2054 24.404 13.1487 24.7569 12.9982 25.0733C12.8477 25.3897 12.6097 25.6564 12.3124 25.8418C12.0151 26.0272 11.6709 26.1236 11.3205 26.1195Z" fill="white"/>
</svg>
