<svg width="92" height="98" viewBox="0 0 92 98" fill="none" xmlns="http://www.w3.org/2000/svg">
<path d="M9.63472 80.2818L6.05072 91.0338C5.85872 91.5245 5.51739 91.7698 5.02672 91.7698C4.51472 91.7698 4.16272 91.5245 3.97072 91.0338L0.434719 80.2818H2.73872L5.02672 87.7058L7.31472 80.2818H9.63472ZM11.9076 79.0498C12.4089 79.0498 12.7343 79.1298 12.8836 79.2898C13.0329 79.4392 13.1076 79.7645 13.1076 80.2658C13.1076 80.7565 13.0276 81.0818 12.8676 81.2418C12.7183 81.3912 12.3929 81.4658 11.8916 81.4658C11.4009 81.4658 11.0756 81.3858 10.9156 81.2258C10.7663 81.0658 10.6916 80.7405 10.6916 80.2498C10.6916 79.7592 10.7663 79.4392 10.9156 79.2898C11.0756 79.1298 11.4063 79.0498 11.9076 79.0498ZM12.9316 91.6738H10.8516V82.8738H12.9316V91.6738ZM22.1058 87.5938H16.7778C16.7778 88.4258 16.9058 89.0338 17.1618 89.4178C17.4285 89.8018 17.9565 89.9938 18.7458 89.9938C19.2578 89.9938 19.6365 89.8338 19.8818 89.5138C20.1272 89.1832 20.2498 88.8685 20.2498 88.5698H22.1218C22.1218 89.7112 21.8125 90.5485 21.1938 91.0818C20.5858 91.6152 19.7752 91.8818 18.7618 91.8818C17.7592 91.8818 16.9805 91.7378 16.4258 91.4498C15.2845 90.8632 14.7138 89.3058 14.7138 86.7778C14.7138 85.2738 15.0392 84.1752 15.6898 83.4818C16.3405 82.7778 17.3325 82.4258 18.6658 82.4258C20.9805 82.4258 22.1378 83.7112 22.1378 86.2818C22.1378 86.5592 22.1272 86.9965 22.1058 87.5938ZM16.8258 86.1698H20.2498C20.2498 85.4658 20.1165 84.9538 19.8498 84.6338C19.5832 84.3138 19.1725 84.1538 18.6178 84.1538C18.0738 84.1538 17.6365 84.3192 17.3058 84.6498C16.9858 84.9698 16.8258 85.4765 16.8258 86.1698ZM34.9355 82.5378L32.3915 91.6738H30.6795L28.9355 86.1218L27.1915 91.6738H25.4795L22.9195 82.5378H25.1275L26.4715 88.4898L27.8635 83.5938C28.0235 82.8898 28.3861 82.5378 28.9515 82.5378C29.2181 82.5378 29.4315 82.6232 29.5915 82.7938C29.7515 82.9645 29.8848 83.2312 29.9915 83.5938L31.3995 88.4898L32.7435 82.5378H34.9355ZM51.6588 91.6738H49.5788V85.9938C49.5788 85.4285 49.5095 85.0338 49.3708 84.8098C49.2428 84.5858 49.0135 84.4738 48.6828 84.4738L46.8108 85.2578V91.6738H44.7308V85.9938C44.7308 84.9805 44.3788 84.4738 43.6748 84.4738L41.9628 85.2578V91.6738H39.8828V82.5378H41.4348L41.9148 83.6258L44.3148 82.4418C45.1468 82.4418 45.7762 82.8472 46.2028 83.6578L49.1788 82.4418C50.0108 82.4418 50.6295 82.7245 51.0348 83.2898C51.4508 83.8445 51.6588 84.5965 51.6588 85.5458V91.6738ZM60.1865 91.6738H58.7945L58.1545 90.5698L55.9305 91.7698C54.6931 91.7698 53.8611 91.3218 53.4345 90.4258C53.2211 89.9885 53.0718 89.5192 52.9865 89.0178C52.9118 88.5058 52.8745 87.9778 52.8745 87.4338C52.8745 86.8792 52.8798 86.4738 52.8905 86.2178C52.9011 85.9512 52.9278 85.6472 52.9705 85.3058C53.0131 84.9538 53.0718 84.6605 53.1465 84.4258C53.2318 84.1912 53.3491 83.9512 53.4985 83.7058C53.6478 83.4498 53.8291 83.2472 54.0425 83.0978C54.5225 82.7672 55.1465 82.6018 55.9145 82.6018H58.1065L60.1865 82.4738V91.6738ZM58.1065 88.7618V84.4738H56.5225C55.9358 84.4738 55.5251 84.6978 55.2905 85.1458C55.0665 85.5938 54.9545 86.2658 54.9545 87.1618C54.9545 88.0472 55.0611 88.6712 55.2745 89.0338C55.4985 89.3965 55.9145 89.5778 56.5225 89.5778L58.1065 88.7618ZM67.2933 82.5698L66.7173 84.6178C66.5573 84.5538 66.376 84.5218 66.1733 84.5218C65.64 84.5218 64.984 84.7512 64.2053 85.2098V91.6738H62.1253V82.5378H63.6773L64.1573 83.3378L66.3653 82.4258C66.472 82.4152 66.616 82.4098 66.7973 82.4098C66.9787 82.4098 67.144 82.4632 67.2933 82.5698ZM76.5357 91.6738H74.0397L71.6397 88.4418L70.7277 89.7378V91.6738H68.6477V79.6418H70.7277V87.2418L73.6397 82.9058H75.9917L72.9997 87.0018L76.5357 91.6738ZM84.4652 87.5938H79.1372C79.1372 88.4258 79.2652 89.0338 79.5212 89.4178C79.7879 89.8018 80.3159 89.9938 81.1052 89.9938C81.6172 89.9938 81.9959 89.8338 82.2412 89.5138C82.4866 89.1832 82.6092 88.8685 82.6092 88.5698H84.4812C84.4812 89.7112 84.1719 90.5485 83.5532 91.0818C82.9452 91.6152 82.1346 91.8818 81.1212 91.8818C80.1186 91.8818 79.3399 91.7378 78.7852 91.4498C77.6439 90.8632 77.0732 89.3058 77.0732 86.7778C77.0732 85.2738 77.3986 84.1752 78.0492 83.4818C78.6999 82.7778 79.6919 82.4258 81.0252 82.4258C83.3399 82.4258 84.4972 83.7112 84.4972 86.2818C84.4972 86.5592 84.4866 86.9965 84.4652 87.5938ZM79.1852 86.1698H82.6092C82.6092 85.4658 82.4759 84.9538 82.2092 84.6338C81.9426 84.3138 81.5319 84.1538 80.9772 84.1538C80.4332 84.1538 79.9959 84.3192 79.6652 84.6498C79.3452 84.9698 79.1852 85.4765 79.1852 86.1698ZM90.2868 91.6738H88.9908C88.2015 91.6738 87.5988 91.4392 87.1828 90.9698C86.7775 90.5005 86.5748 89.9405 86.5748 89.2898V84.4898H85.6948V82.9058H86.5748V81.1138H88.6548V82.9058H90.1268V84.4898H88.6548V89.1618C88.6548 89.6632 88.8948 89.9138 89.3748 89.9138H90.2868V91.6738Z" fill="white"/>
<rect x="26.7158" y="1.78467" width="39.5958" height="64.6727" rx="3" fill="black"/>
<g clip-path="url(#clip0_1_209)">
<path d="M29.6847 64.19H62.9107C63.1827 64.19 63.4137 63.766 63.4137 63.277V26.117V4.86703C63.4137 4.37403 63.1837 3.95703 62.9107 3.95703H29.6847C29.5357 3.95703 29.4217 4.05503 29.3437 4.20703C29.3437 4.20703 29.3427 4.21803 29.3317 4.22903C29.3317 4.22903 29.3237 4.24803 29.3127 4.26503C29.2327 4.40003 29.1807 4.59803 29.1807 4.86703V63.274C29.1807 63.764 29.4117 64.187 29.6847 64.187" fill="#41A56E"/>
<path d="M32.1457 28.512H45.6787C45.7927 28.512 45.8857 28.368 45.8857 28.198V15.329V7.96903C45.8857 7.79803 45.7927 7.65503 45.6787 7.65503H32.1447C32.0847 7.65503 32.0377 7.68803 32.0067 7.74003C32.0067 7.74003 32.0027 7.74203 32.0027 7.74703L31.9947 7.75903C31.9546 7.82141 31.9357 7.89504 31.9407 7.96903V28.198C31.9427 28.369 32.0357 28.512 32.1457 28.512Z" fill="#3C9662"/>
<path d="M31.4717 60.76H45.0037C45.1197 60.76 45.2107 60.607 45.2107 60.427V46.9141V39.1851C45.2107 39.0071 45.1197 38.8521 45.0037 38.8521H31.4707C31.4107 38.8521 31.3627 38.887 31.3317 38.945C31.3317 38.945 31.3277 38.949 31.3277 38.953C31.3277 38.953 31.3237 38.957 31.3197 38.965C31.2794 39.0314 31.2606 39.1086 31.2657 39.1861V60.427C31.2657 60.606 31.3597 60.76 31.4717 60.76Z" fill="#3C9662"/>
<path d="M32.8237 56.27H43.6527C43.7457 56.27 43.8197 56.154 43.8197 56.025V46.005V40.274C43.8197 40.14 43.7457 40.028 43.6527 40.028H32.8247C32.8017 40.0278 32.7791 40.034 32.7594 40.0458C32.7397 40.0576 32.7235 40.0746 32.7127 40.095L32.7107 40.103C32.7107 40.103 32.7067 40.105 32.7047 40.111C32.6757 40.146 32.6607 40.2 32.6607 40.274V56.03C32.6587 56.157 32.7347 56.274 32.8237 56.274" fill="#55C688"/>
<path d="M48.1367 60.76H61.6687C61.7847 60.76 61.8757 60.607 61.8757 60.427V46.9141V39.1851C61.8757 39.0071 61.7847 38.8521 61.6687 38.8521H48.1357C48.0757 38.8521 48.0277 38.887 47.9957 38.945C47.9957 38.945 47.9917 38.949 47.9917 38.953C47.9917 38.953 47.9877 38.957 47.9837 38.965C47.9439 39.0316 47.9251 39.1086 47.9297 39.1861V60.427C47.9317 60.606 48.0247 60.76 48.1367 60.76Z" fill="#3C9662"/>
<path d="M49.4867 56.27H60.3157C60.4087 56.27 60.4817 56.154 60.4817 56.025V46.005V40.274C60.4817 40.14 60.4087 40.028 60.3157 40.028H49.4867C49.4637 40.028 49.4412 40.0343 49.4215 40.0461C49.4018 40.0579 49.3856 40.0748 49.3747 40.095L49.3727 40.103C49.3727 40.103 49.3687 40.105 49.3667 40.111C49.3387 40.146 49.3227 40.2 49.3227 40.274V56.03C49.3227 56.157 49.3977 56.274 49.4867 56.274" fill="#55C688"/>
<path d="M34.9367 37.012C37.1342 37.012 38.9157 35.2695 38.9157 33.12C38.9157 30.9705 37.1342 29.228 34.9367 29.228C32.7392 29.228 30.9577 30.9705 30.9577 33.12C30.9577 35.2695 32.7392 37.012 34.9367 37.012Z" fill="#DBC926"/>
<path d="M34.9367 36.1641C36.6554 36.1641 38.0487 34.8012 38.0487 33.12C38.0487 31.4389 36.6554 30.076 34.9367 30.076C33.218 30.076 31.8247 31.4389 31.8247 33.12C31.8247 34.8012 33.218 36.1641 34.9367 36.1641Z" fill="#FBED21"/>
<path d="M33.1567 25.826H44.6717C44.7687 25.826 44.8477 25.702 44.8477 25.557V14.608V8.34796C44.8477 8.20196 44.7687 8.07996 44.6717 8.07996H33.1527C33.1286 8.0799 33.1049 8.08662 33.0844 8.09935C33.0639 8.11208 33.0474 8.13031 33.0367 8.15196C33.0367 8.15196 33.0327 8.15496 33.0327 8.15996L33.0267 8.17096C32.9957 8.20796 32.9807 8.26796 32.9807 8.34796V25.557C32.9807 25.702 33.0597 25.826 33.1527 25.826" fill="#55C688"/>
<path d="M48.1367 28.512H61.6707C61.7847 28.512 61.8777 28.368 61.8777 28.198V15.329V7.96903C61.8777 7.79803 61.7847 7.65503 61.6707 7.65503H48.1357C48.0757 7.65503 48.0297 7.68803 47.9977 7.74003C47.9977 7.74003 47.9937 7.74203 47.9937 7.74703L47.9857 7.75903C47.946 7.8216 47.9271 7.89509 47.9317 7.96903V28.198C47.9337 28.369 48.0267 28.512 48.1367 28.512Z" fill="#3C9662"/>
<path d="M49.1467 25.826H60.6627C60.7597 25.826 60.8387 25.702 60.8387 25.557V14.608V8.34796C60.8387 8.20196 60.7597 8.07996 60.6627 8.07996H49.1437C49.1196 8.0799 49.0959 8.08662 49.0754 8.09935C49.0549 8.11208 49.0384 8.13031 49.0277 8.15196C49.0277 8.15196 49.0237 8.15496 49.0237 8.15996L49.0177 8.17096C48.9877 8.20796 48.9717 8.26796 48.9717 8.34796V25.557C48.9717 25.702 49.0497 25.826 49.1427 25.826" fill="#55C688"/>
</g>
<defs>
<clipPath id="clip0_1_209">
<rect width="64" height="64" fill="white" transform="translate(13.8867)"/>
</clipPath>
</defs>
</svg>
