<svg width="13" height="27" viewBox="0 0 13 27" fill="none" xmlns="http://www.w3.org/2000/svg">
<path d="M2.16091 0.440555C2.43491 0.439624 2.70564 0.500096 2.9532 0.617528C3.20076 0.73496 3.41886 0.906369 3.59148 1.11916L12.45 12.1235C12.7197 12.4517 12.8672 12.8633 12.8672 13.2881C12.8672 13.7129 12.7197 14.1246 12.45 14.4527L3.27969 25.4571C2.96838 25.8316 2.52103 26.0672 2.03606 26.1119C1.55108 26.1566 1.06821 26.0068 0.693666 25.6955C0.319121 25.3842 0.0835858 24.9368 0.0388719 24.4519C-0.00584202 23.9669 0.14393 23.484 0.45524 23.1095L8.65347 13.2789L0.730351 3.44841C0.506077 3.17919 0.363613 2.85137 0.319817 2.50373C0.27602 2.15609 0.332724 1.80317 0.483218 1.48675C0.633713 1.17032 0.871701 0.90363 1.16902 0.718224C1.46634 0.532819 1.81055 0.436461 2.16091 0.440555Z" fill="white"/>
</svg>
