<svg width="14" height="27" viewBox="0 0 14 27" fill="none" xmlns="http://www.w3.org/2000/svg">
<path d="M2.9208 26.2054C3.1948 26.2064 3.46552 26.1459 3.71308 26.0285C3.96064 25.911 4.17874 25.7396 4.35136 25.5268L13.2098 14.5225C13.4796 14.1943 13.6271 13.7827 13.6271 13.3579C13.6271 12.9331 13.4796 12.5214 13.2098 12.1933L4.03957 1.18892C3.72826 0.814379 3.28092 0.578842 2.79594 0.534128C2.31097 0.489414 1.8281 0.639187 1.45355 0.950497C1.07901 1.26181 0.843473 1.70915 0.798759 2.19413C0.754045 2.6791 0.903817 3.16197 1.21513 3.53651L9.41336 13.3671L1.49024 23.1976C1.26596 23.4668 1.1235 23.7946 1.0797 24.1423C1.03591 24.4899 1.09261 24.8428 1.2431 25.1592C1.3936 25.4757 1.63159 25.7424 1.92891 25.9278C2.22622 26.1132 2.57043 26.2095 2.9208 26.2054Z" fill="white"/>
</svg>
